<mxfile host="app.diagrams.net" modified="2023-01-26T04:38:24.775Z" agent="5.0 (Macintosh; Intel Mac OS X 10_15_7) AppleWebKit/537.36 (KHTML, like Gecko) Chrome/108.0.0.0 Safari/537.36" version="20.8.1" etag="hQBSEAUBDOOXaZHIlvku" type="github">
  <diagram id="RlMzzMrG-Vdmb-f_fj_N" name="Page-1">
    <mxGraphModel dx="2094" dy="-434" grid="1" gridSize="10" guides="1" tooltips="1" connect="1" arrows="1" fold="1" page="1" pageScale="1" pageWidth="850" pageHeight="1100" math="0" shadow="0">
      <root>
        <mxCell id="0" />
        <mxCell id="1" parent="0" />
        <mxCell id="Eb_7mKWkyP9OcRR7P0dA-1" style="edgeStyle=orthogonalEdgeStyle;rounded=0;orthogonalLoop=1;jettySize=auto;html=1;fontSize=18;" edge="1" parent="1" source="Eb_7mKWkyP9OcRR7P0dA-2">
          <mxGeometry relative="1" as="geometry">
            <mxPoint x="-10" y="1635" as="targetPoint" />
          </mxGeometry>
        </mxCell>
        <mxCell id="Eb_7mKWkyP9OcRR7P0dA-2" value="&lt;font style=&quot;font-size: 18px;&quot;&gt;Estimate distributions and densities&lt;/font&gt;" style="rounded=1;whiteSpace=wrap;html=1;strokeColor=#6c8ebf;fillColor=#dae8fc;" vertex="1" parent="1">
          <mxGeometry x="-245" y="1590" width="155" height="90" as="geometry" />
        </mxCell>
        <mxCell id="Eb_7mKWkyP9OcRR7P0dA-3" style="edgeStyle=orthogonalEdgeStyle;rounded=0;orthogonalLoop=1;jettySize=auto;html=1;entryX=0;entryY=0.5;entryDx=0;entryDy=0;" edge="1" parent="1" source="Eb_7mKWkyP9OcRR7P0dA-4" target="Eb_7mKWkyP9OcRR7P0dA-10">
          <mxGeometry relative="1" as="geometry" />
        </mxCell>
        <mxCell id="Eb_7mKWkyP9OcRR7P0dA-4" value="&lt;font style=&quot;font-size: 18px;&quot;&gt;Estimate thresholds from densities and&lt;b&gt; current slack variable&lt;/b&gt;&lt;/font&gt;" style="rounded=1;whiteSpace=wrap;html=1;strokeColor=#6c8ebf;fillColor=#dae8fc;" vertex="1" parent="1">
          <mxGeometry y="1580" width="210" height="100" as="geometry" />
        </mxCell>
        <mxCell id="Eb_7mKWkyP9OcRR7P0dA-5" style="edgeStyle=orthogonalEdgeStyle;rounded=0;orthogonalLoop=1;jettySize=auto;html=1;entryX=0.5;entryY=1;entryDx=0;entryDy=0;" edge="1" parent="1" source="Eb_7mKWkyP9OcRR7P0dA-6" target="Eb_7mKWkyP9OcRR7P0dA-10">
          <mxGeometry relative="1" as="geometry" />
        </mxCell>
        <mxCell id="Eb_7mKWkyP9OcRR7P0dA-6" value="&lt;font style=&quot;font-size: 18px;&quot;&gt;Look at a new transaction between a vendor and a buyer&lt;/font&gt;" style="rounded=1;whiteSpace=wrap;html=1;fillColor=#e1d5e7;strokeColor=#9673a6;" vertex="1" parent="1">
          <mxGeometry x="355" y="2170" width="270" height="90" as="geometry" />
        </mxCell>
        <mxCell id="Eb_7mKWkyP9OcRR7P0dA-7" style="edgeStyle=orthogonalEdgeStyle;rounded=0;orthogonalLoop=1;jettySize=auto;html=1;fontSize=18;" edge="1" parent="1" source="Eb_7mKWkyP9OcRR7P0dA-8">
          <mxGeometry relative="1" as="geometry">
            <mxPoint x="-250" y="1635" as="targetPoint" />
          </mxGeometry>
        </mxCell>
        <mxCell id="Eb_7mKWkyP9OcRR7P0dA-8" value="&lt;font style=&quot;font-size: 18px;&quot;&gt;History of transactions&lt;/font&gt;" style="rounded=1;whiteSpace=wrap;html=1;strokeColor=#6c8ebf;fillColor=#dae8fc;" vertex="1" parent="1">
          <mxGeometry x="-490" y="1590" width="155" height="90" as="geometry" />
        </mxCell>
        <mxCell id="Eb_7mKWkyP9OcRR7P0dA-9" style="edgeStyle=orthogonalEdgeStyle;rounded=0;orthogonalLoop=1;jettySize=auto;html=1;entryX=0.607;entryY=1.018;entryDx=0;entryDy=0;entryPerimeter=0;fontSize=18;" edge="1" parent="1" source="Eb_7mKWkyP9OcRR7P0dA-10" target="Eb_7mKWkyP9OcRR7P0dA-12">
          <mxGeometry relative="1" as="geometry" />
        </mxCell>
        <mxCell id="Eb_7mKWkyP9OcRR7P0dA-10" value="Where does this new transaction &lt;br&gt;fall in the distribution?&lt;br&gt;Above or below threshold?" style="rhombus;whiteSpace=wrap;html=1;fontSize=18;fillColor=#e1d5e7;strokeColor=#9673a6;" vertex="1" parent="1">
          <mxGeometry x="310" y="1760" width="360" height="310" as="geometry" />
        </mxCell>
        <mxCell id="Eb_7mKWkyP9OcRR7P0dA-11" style="edgeStyle=orthogonalEdgeStyle;rounded=0;orthogonalLoop=1;jettySize=auto;html=1;entryX=0.5;entryY=1;entryDx=0;entryDy=0;fontSize=18;" edge="1" parent="1" source="Eb_7mKWkyP9OcRR7P0dA-12" target="Eb_7mKWkyP9OcRR7P0dA-14">
          <mxGeometry relative="1" as="geometry" />
        </mxCell>
        <mxCell id="Eb_7mKWkyP9OcRR7P0dA-12" value="&lt;font style=&quot;font-size: 18px;&quot;&gt;Get invoice approver feedback&lt;/font&gt;" style="rounded=1;whiteSpace=wrap;html=1;fillColor=#e1d5e7;strokeColor=#9673a6;" vertex="1" parent="1">
          <mxGeometry x="320" y="1580" width="280" height="100" as="geometry" />
        </mxCell>
        <mxCell id="Eb_7mKWkyP9OcRR7P0dA-13" style="edgeStyle=orthogonalEdgeStyle;rounded=0;orthogonalLoop=1;jettySize=auto;html=1;entryX=0;entryY=0.5;entryDx=0;entryDy=0;fontSize=18;" edge="1" parent="1" source="Eb_7mKWkyP9OcRR7P0dA-14" target="Eb_7mKWkyP9OcRR7P0dA-15">
          <mxGeometry relative="1" as="geometry" />
        </mxCell>
        <mxCell id="Eb_7mKWkyP9OcRR7P0dA-14" value="RTT classification is correct?" style="rhombus;whiteSpace=wrap;html=1;fontSize=18;fillColor=#e1d5e7;strokeColor=#9673a6;" vertex="1" parent="1">
          <mxGeometry x="330" y="1260" width="260" height="210" as="geometry" />
        </mxCell>
        <mxCell id="Eb_7mKWkyP9OcRR7P0dA-15" value="&lt;font style=&quot;font-size: 18px;&quot;&gt;Update &lt;b&gt;threshold slack variable&lt;/b&gt;&lt;/font&gt;" style="rounded=1;whiteSpace=wrap;html=1;fillColor=#e1d5e7;strokeColor=#9673a6;" vertex="1" parent="1">
          <mxGeometry x="690" y="1320" width="270" height="90" as="geometry" />
        </mxCell>
        <mxCell id="Eb_7mKWkyP9OcRR7P0dA-16" value="&lt;font style=&quot;font-size: 18px;&quot;&gt;No&lt;/font&gt;" style="rounded=1;whiteSpace=wrap;html=1;rotation=0;" vertex="1" parent="1">
          <mxGeometry x="595" y="1320" width="75" height="30" as="geometry" />
        </mxCell>
        <mxCell id="Eb_7mKWkyP9OcRR7P0dA-17" value="" style="shape=flexArrow;endArrow=classic;html=1;rounded=0;fontSize=18;" edge="1" parent="1">
          <mxGeometry width="50" height="50" relative="1" as="geometry">
            <mxPoint x="310" y="1380" as="sourcePoint" />
            <mxPoint x="-390" y="1580" as="targetPoint" />
          </mxGeometry>
        </mxCell>
        <mxCell id="Eb_7mKWkyP9OcRR7P0dA-18" value="&lt;font style=&quot;font-size: 18px;&quot;&gt;Add current transaction to history&lt;/font&gt;" style="rounded=1;whiteSpace=wrap;html=1;rotation=-15;" vertex="1" parent="1">
          <mxGeometry x="-180" y="1440" width="270" height="30" as="geometry" />
        </mxCell>
      </root>
    </mxGraphModel>
  </diagram>
</mxfile>
